<svg xmlns="http://www.w3.org/2000/svg"  viewBox="0 0 512 512" width="128px" height="128px"><polygon fill="#6e83b7" points="256,256 256,471 69.81,363.5 69.81,148.5"/><polygon fill="#466089" points="442.19,148.5 442.19,363.5 256,471 256,256"/><polygon fill="#80d6fb" points="442.195,148.5 256,41 69.805,148.5 256,256"/><g><polygon fill="#000" points="30,120 10,120 10,10 120,10 120,30 30,30"/><polygon fill="#000" points="120,502 10,502 10,392 30,392 30,482 120,482"/><polygon fill="#000" points="502,120 482,120 482,30 392,30 392,10 502,10"/><polygon fill="#000" points="502,502 392,502 392,482 482,482 482,392 502,392"/></g></svg>