<svg xmlns="http://www.w3.org/2000/svg" xmlns:xlink="http://www.w3.org/1999/xlink" viewBox="0,0,255.99265,255.99265" width="512px" height="512px"><g fill="#ffffff" fill-rule="nonzero" stroke="none" stroke-width="1" stroke-linecap="butt" stroke-linejoin="miter" stroke-miterlimit="10" stroke-dasharray="" stroke-dashoffset="0" font-family="none" font-weight="none" font-size="none" text-anchor="none" style="mix-blend-mode: normal"><g transform="scale(4,4)"><path d="M16,10c-0.55226,0.00006 -0.99994,0.44774 -1,1v10h-4c-0.55226,0.00006 -0.99994,0.44774 -1,1v10h-4c-0.55226,0.00006 -0.99994,0.44774 -1,1v10h-4c-0.55226,0.00006 -0.99994,0.44774 -1,1v11c0.00006,0.55226 0.44774,0.99994 1,1h21h35h6c0.55226,-0.00006 0.99994,-0.44774 1,-1v-11v-10c-0.00006,-0.55226 -0.44774,-0.99994 -1,-1h-5v-15c-0.00006,-0.55226 -0.44774,-0.99994 -1,-1h-16v-6c-0.00006,-0.55226 -0.44774,-0.99994 -1,-1zM17,12h22v5h-17c-0.55226,0.00006 -0.99994,0.44774 -1,1v3h-4zM23,19h11v7c0.00006,0.55226 0.44774,0.99994 1,1h9c0.55226,-0.00006 0.99994,-0.44774 1,-1v-7h11v14h-20c-4.62643,0 -6.06148,6.18173 -4.30664,10.01953c-4.78521,0.29643 -5.93558,7.41141 -3.44336,10.98047h-5.25zM36,19h7v6h-7zM12,23h4h5v9h-9zM7,34h14v9h-14zM36,35c3.95833,0 3.95833,9 0,9c-3.95833,0 -3.95833,-9 0,-9zM39.75,35h22.25v8h-21.68359c1.11423,-2.45746 0.9248,-5.86447 -0.56641,-8zM2,45h19v9h-19zM32,45c3.95833,0 3.95833,9 0,9c-3.95833,0 -3.95833,-9 0,-9zM40,45c3.95833,0 3.95833,9 0,9c-3.95833,0 -3.95833,-9 0,-9zM43.75,45h18.25v9h-5h-13.25c1.70697,-2.44452 1.70697,-6.55548 0,-9zM5.98438,47.98633c-0.55152,0.00862 -0.99193,0.46214 -0.98437,1.01367v2c-0.0051,0.36064 0.18438,0.69608 0.49587,0.87789c0.3115,0.18181 0.69676,0.18181 1.00825,0c0.3115,-0.18181 0.50097,-0.51725 0.49587,-0.87789v-2c0.0037,-0.2703 -0.10218,-0.53059 -0.29351,-0.72155c-0.19133,-0.19097 -0.45182,-0.29634 -0.72212,-0.29212zM10.98438,47.98633c-0.55152,0.00862 -0.99193,0.46214 -0.98437,1.01367v2c-0.0051,0.36064 0.18438,0.69608 0.49587,0.87789c0.3115,0.18181 0.69676,0.18181 1.00825,0c0.3115,-0.18181 0.50097,-0.51725 0.49587,-0.87789v-2c0.0037,-0.2703 -0.10218,-0.53059 -0.29351,-0.72155c-0.19133,-0.19097 -0.45182,-0.29634 -0.72212,-0.29212zM15.98438,47.98633c-0.55152,0.00862 -0.99193,0.46214 -0.98437,1.01367v2c-0.0051,0.36064 0.18438,0.69608 0.49587,0.87789c0.3115,0.18181 0.69676,0.18181 1.00825,0c0.3115,-0.18181 0.50097,-0.51725 0.49587,-0.87789v-2c0.0037,-0.2703 -0.10218,-0.53059 -0.29351,-0.72155c-0.19133,-0.19097 -0.45182,-0.29634 -0.72212,-0.29212z"></path></g></g></svg>