<svg width="189" height="60" viewBox="0 0 189 60" fill="none" xmlns="http://www.w3.org/2000/svg">
<path d="M29.6557 4.40269V7.10761H32.3606C32.9038 7.10761 33.3442 7.54802 33.3442 8.09122C33.3442 8.63441 32.9038 9.07482 32.3606 9.07482H29.6557V11.7797C29.6557 12.3229 29.2153 12.7634 28.6721 12.7634C28.1289 12.7634 27.6885 12.3229 27.6885 11.7797V9.07482H24.9836C24.4404 9.07482 24 8.63441 24 8.09122C24 7.54802 24.4404 7.10761 24.9836 7.10761H27.6885V4.40269C27.6885 3.8595 28.1289 3.41909 28.6721 3.41909C29.2153 3.41909 29.6557 3.8595 29.6557 4.40269Z" fill="#F1815C"/>
<path d="M1.96721 24.6054V19.247C1.96721 18.7038 1.5268 18.2633 0.983606 18.2633C0.44041 18.2633 0 18.7038 0 19.247V50.6587H1.96721V40.992V33.2294V24.6054Z" fill="#F1815C"/>
<path d="M36.1475 20.2306V50.6587H38.1147V20.2306H36.1475Z" fill="#F1815C"/>
<path fill-rule="evenodd" clip-rule="evenodd" d="M36.1475 20.2306H38.1147V0.9375C38.1147 0.688867 38.0028 0.450425 37.8035 0.274615C37.6042 0.0988053 37.334 2.48596e-05 37.0522 0H13.6772C13.4799 9.14325e-05 13.2865 0.04865 13.1188 0.140238C12.951 0.231826 12.8154 0.362826 12.7272 0.518562C12.639 0.674299 12.6017 0.848621 12.6195 1.02201C12.6373 1.19539 12.7094 1.36098 12.8278 1.50024L18.7241 8.4375L12.8278 15.3748C12.7094 15.514 12.6373 15.6796 12.6195 15.853C12.6017 16.0264 12.639 16.2007 12.7272 16.3564C12.8154 16.5122 12.951 16.6432 13.1188 16.7348C13.2865 16.8263 13.4799 16.8749 13.6772 16.875H36.1475V20.2306ZM15.8022 1.875H35.9897V8.4375V15H15.8022L20.9017 9.00024C21.0397 8.83792 21.1144 8.64045 21.1144 8.4375C21.1144 8.23455 21.0397 8.03708 20.9017 7.87476L15.8022 1.875Z" fill="#F1815C"/>
<path d="M4.68443 50.6587V25.1486C4.68443 24.165 5.68443 24.165 5.68443 24.165H32.8402C32.8402 24.165 34.1844 24.165 34.1844 25.1486V50.6587H4.68443Z" fill="#F1815C"/>
<path d="M54.46 44.64C52.3267 44.64 50.6067 43.96 49.3 42.6C48.0067 41.24 47.36 39.4533 47.36 37.24V36.24H50.36V37.24C50.36 38.56 50.7333 39.6267 51.48 40.44C52.2267 41.24 53.22 41.64 54.46 41.64C55.7 41.64 56.6933 41.24 57.44 40.44C58.1867 39.6267 58.56 38.56 58.56 37.24V35C58.56 34.2667 58.5333 33.6867 58.48 33.26C58.4267 32.82 58.28 32.4667 58.04 32.2C57.8 31.9333 57.4 31.6867 56.84 31.46C56.28 31.22 55.4867 30.9333 54.46 30.6C52.6867 30.0133 51.3133 29.5267 50.34 29.14C49.3667 28.7533 48.6667 28.34 48.24 27.9C47.8267 27.46 47.5733 26.88 47.48 26.16C47.4 25.4267 47.36 24.44 47.36 23.2V20.76C47.36 18.5333 48.0067 16.7467 49.3 15.4C50.6067 14.04 52.3267 13.36 54.46 13.36C56.6067 13.36 58.3267 14.04 59.62 15.4C60.9133 16.7467 61.56 18.5333 61.56 20.76V21.76H58.56V20.76C58.56 19.44 58.1867 18.38 57.44 17.58C56.6933 16.7667 55.7 16.36 54.46 16.36C53.22 16.36 52.2267 16.7667 51.48 17.58C50.7333 18.38 50.36 19.44 50.36 20.76V23.2C50.36 23.9333 50.38 24.52 50.42 24.96C50.4733 25.3867 50.62 25.7333 50.86 26C51.1 26.2533 51.5 26.5 52.06 26.74C52.6333 26.98 53.4333 27.2667 54.46 27.6C56.2333 28.1733 57.6067 28.66 58.58 29.06C59.5533 29.4467 60.2467 29.86 60.66 30.3C61.0867 30.74 61.34 31.32 61.42 32.04C61.5133 32.76 61.56 33.7467 61.56 35V37.24C61.56 39.4533 60.9133 41.24 59.62 42.6C58.3267 43.96 56.6067 44.64 54.46 44.64ZM69.7872 44V17H64.6272V14H77.9272V17H72.7872V44H69.7872ZM82.1919 44V14H89.5919C91.5652 14 93.1385 14.62 94.3119 15.86C95.4985 17.1 96.0919 18.7467 96.0919 20.8V24.84C96.0919 26.2267 95.8052 27.4467 95.2319 28.5C94.6719 29.5533 93.8719 30.3533 92.8319 30.9L92.6919 30.02C93.7585 30.4333 94.5919 31.0867 95.1919 31.98C95.7919 32.8733 96.0919 33.9267 96.0919 35.14V44H93.0919V35.14C93.0919 34.1 92.7719 33.26 92.1319 32.62C91.5052 31.9667 90.6585 31.64 89.5919 31.64H85.1919V44H82.1919ZM85.1919 28.64H89.5919C90.6585 28.64 91.5052 28.2933 92.1319 27.6C92.7719 26.9067 93.0919 25.9867 93.0919 24.84V20.8C93.0919 19.6533 92.7719 18.7333 92.1319 18.04C91.5052 17.3467 90.6585 17 89.5919 17H85.1919V28.64ZM114.761 14V17H105.661V27.5H113.681V30.5H105.661V41H114.761V44H102.661V14H114.761ZM132.065 14V17H122.965V27.5H130.985V30.5H122.965V41H132.065V44H119.965V14H132.065ZM139.67 44V17H134.51V14H147.81V17H142.67V44H139.67ZM165.835 36.24V37.24C165.835 39.4533 165.188 41.24 163.895 42.6C162.601 43.96 160.881 44.64 158.735 44.64C156.601 44.64 154.881 43.96 153.575 42.6C152.281 41.24 151.635 39.4533 151.635 37.24V20.76C151.635 18.5333 152.281 16.7467 153.575 15.4C154.881 14.04 156.601 13.36 158.735 13.36C160.881 13.36 162.601 14.04 163.895 15.4C165.188 16.7467 165.835 18.5333 165.835 20.76V21.76H162.835V20.76C162.835 19.44 162.461 18.38 161.715 17.58C160.968 16.7667 159.975 16.36 158.735 16.36C157.495 16.36 156.501 16.7667 155.755 17.58C155.008 18.38 154.635 19.44 154.635 20.76V37.24C154.635 38.56 155.008 39.6267 155.755 40.44C156.501 41.24 157.495 41.64 158.735 41.64C159.975 41.64 160.968 41.24 161.715 40.44C162.461 39.6267 162.835 38.56 162.835 37.24V36.24H165.835ZM171.176 44V14H174.176V29.3H181.876V14H184.876V44H181.876V32.3H174.176V44H171.176Z" fill="#F1815C"/>
</svg>
