<svg width="39" height="51" viewBox="0 0 39 51" fill="none" xmlns="http://www.w3.org/2000/svg">
<path d="M29.6557 4.40269V7.10761H32.3606C32.9038 7.10761 33.3442 7.54802 33.3442 8.09122C33.3442 8.63441 32.9038 9.07482 32.3606 9.07482H29.6557V11.7797C29.6557 12.3229 29.2153 12.7634 28.6721 12.7634C28.1289 12.7634 27.6885 12.3229 27.6885 11.7797V9.07482H24.9836C24.4404 9.07482 24 8.63441 24 8.09122C24 7.54802 24.4404 7.10761 24.9836 7.10761H27.6885V4.40269C27.6885 3.8595 28.1289 3.41909 28.6721 3.41909C29.2153 3.41909 29.6557 3.8595 29.6557 4.40269Z" fill="#F1815C"/>
<path d="M1.96721 24.6054V19.247C1.96721 18.7038 1.5268 18.2633 0.983606 18.2633C0.44041 18.2633 0 18.7038 0 19.247V50.6587H1.96721V40.992V33.2294V24.6054Z" fill="#F1815C"/>
<path d="M36.1475 20.2306V50.6587H38.1147V20.2306H36.1475Z" fill="#F1815C"/>
<path fill-rule="evenodd" clip-rule="evenodd" d="M36.1475 20.2306H38.1147V0.9375C38.1147 0.688867 38.0028 0.450425 37.8035 0.274615C37.6042 0.0988053 37.334 2.48596e-05 37.0522 0H13.6772C13.4799 9.14325e-05 13.2865 0.04865 13.1188 0.140238C12.951 0.231826 12.8154 0.362826 12.7272 0.518562C12.639 0.674299 12.6017 0.848621 12.6195 1.02201C12.6373 1.19539 12.7094 1.36098 12.8278 1.50024L18.7241 8.4375L12.8278 15.3748C12.7094 15.514 12.6373 15.6796 12.6195 15.853C12.6017 16.0264 12.639 16.2007 12.7272 16.3564C12.8154 16.5122 12.951 16.6432 13.1188 16.7348C13.2865 16.8263 13.4799 16.8749 13.6772 16.875H36.1475V20.2306ZM15.8022 1.875H35.9897V8.4375V15H15.8022L20.9017 9.00024C21.0397 8.83792 21.1144 8.64045 21.1144 8.4375C21.1144 8.23455 21.0397 8.03708 20.9017 7.87476L15.8022 1.875Z" fill="#F1815C"/>
<path d="M4.68443 50.6587V25.1486C4.68443 24.165 5.68443 24.165 5.68443 24.165H32.8402C32.8402 24.165 34.1844 24.165 34.1844 25.1486V50.6587H4.68443Z" fill="#F1815C"/>
</svg>
