<svg xmlns="http://www.w3.org/2000/svg" xmlns:xlink="http://www.w3.org/1999/xlink" viewBox="0,0,255.99265,255.99265" width="500px" height="500px"><g fill="#ffffff" fill-rule="nonzero" stroke="none" stroke-width="1" stroke-linecap="butt" stroke-linejoin="miter" stroke-miterlimit="10" stroke-dasharray="" stroke-dashoffset="0" font-family="none" font-weight="none" font-size="none" text-anchor="none" style="mix-blend-mode: normal"><g transform="scale(5.12,5.12)"><path d="M2.8125,2c-0.47656,0.08984 -0.82031,0.51172 -0.8125,1v4c0,0.55078 0.44922,1 1,1h1v31c0,0.55078 0.44922,1 1,1h19v2.1875c-1.15625,0.41797 -2,1.51953 -2,2.8125c0,1.64453 1.35547,3 3,3c1.64453,0 3,-1.35547 3,-3c0,-1.29297 -0.84375,-2.39453 -2,-2.8125v-2.1875h19c0.55078,0 1,-0.44922 1,-1v-31h1c0.55078,0 1,-0.44922 1,-1v-4c0,-0.55078 -0.44922,-1 -1,-1h-44c-0.03125,0 -0.0625,0 -0.09375,0c-0.03125,0 -0.0625,0 -0.09375,0zM4,4h42v2h-42zM6,8h38v30h-18.8125c-0.13281,-0.02734 -0.27344,-0.02734 -0.40625,0h-18.78125zM18.8125,14c-0.47656,0.08984 -0.82031,0.51172 -0.8125,1v5c0,0.55078 0.44922,1 1,1h5c0.55078,0 1,-0.44922 1,-1c0,-3.30078 -2.69922,-6 -6,-6c-0.03125,0 -0.0625,0 -0.09375,0c-0.03125,0 -0.0625,0 -0.09375,0zM20,16.1875c1.39063,0.36328 2.44922,1.42188 2.8125,2.8125h-2.8125zM16,17c-3.30078,0 -6,2.69922 -6,6c0,3.30078 2.69922,6 6,6c3.30078,0 6,-2.69922 6,-6c0,-0.55078 -0.44922,-1 -1,-1h-4v-4c0,-0.55078 -0.44922,-1 -1,-1zM27.71875,17c-0.55078,0.07813 -0.9375,0.58984 -0.85937,1.14063c0.07813,0.55078 0.58984,0.9375 1.14063,0.85938h11c0.35938,0.00391 0.69531,-0.18359 0.87891,-0.49609c0.17969,-0.3125 0.17969,-0.69531 0,-1.00781c-0.18359,-0.3125 -0.51953,-0.5 -0.87891,-0.49609h-11c-0.03125,0 -0.0625,0 -0.09375,0c-0.03125,0 -0.0625,0 -0.09375,0c-0.03125,0 -0.0625,0 -0.09375,0zM15,19.1875v3.8125c0,0.55078 0.44922,1 1,1h3.8125c-0.44922,1.71875 -1.94531,3 -3.8125,3c-2.21875,0 -4,-1.78125 -4,-4c0,-1.86719 1.28125,-3.36328 3,-3.8125zM27.71875,22c-0.55078,0.07813 -0.9375,0.58984 -0.85937,1.14063c0.07813,0.55078 0.58984,0.9375 1.14063,0.85938h11c0.35938,0.00391 0.69531,-0.18359 0.87891,-0.49609c0.17969,-0.3125 0.17969,-0.69531 0,-1.00781c-0.18359,-0.3125 -0.51953,-0.5 -0.87891,-0.49609h-11c-0.03125,0 -0.0625,0 -0.09375,0c-0.03125,0 -0.0625,0 -0.09375,0c-0.03125,0 -0.0625,0 -0.09375,0zM27.71875,27c-0.55078,0.07813 -0.9375,0.58984 -0.85937,1.14063c0.07813,0.55078 0.58984,0.9375 1.14063,0.85938h11c0.35938,0.00391 0.69531,-0.18359 0.87891,-0.49609c0.17969,-0.3125 0.17969,-0.69531 0,-1.00781c-0.18359,-0.3125 -0.51953,-0.5 -0.87891,-0.49609h-11c-0.03125,0 -0.0625,0 -0.09375,0c-0.03125,0 -0.0625,0 -0.09375,0c-0.03125,0 -0.0625,0 -0.09375,0zM24.90625,44c0.03125,0 0.0625,0 0.09375,0c0.5625,0 1,0.4375 1,1c0,0.5625 -0.4375,1 -1,1c-0.5625,0 -1,-0.4375 -1,-1c0,-0.53125 0.38672,-0.95312 0.90625,-1z"></path></g></g></svg>